<svg width="168" height="168" xmlns="http://www.w3.org/2000/svg"><g fill="none" fill-rule="evenodd"><circle fill="#E4E5E6" cx="84" cy="84" r="84"/><path d="M106.085 54.135l-.122.08-.14.041a16.678 16.678 0 0 0-9.64 7.56l-.16.272a3.132 3.132 0 0 0 3.45 4.625l3.205-.786-1.162 30.809A7 7 0 0 0 108.51 104h14.897a7 7 0 0 0 6.988-7.41l-1.799-30.683 3.288.806a3.132 3.132 0 0 0 3.449-4.625l-.16-.273a16.678 16.678 0 0 0-10.002-7.662l-.14-.038-.122-.076a6.967 6.967 0 0 0-3.67-1.039h-11.332a6.965 6.965 0 0 0-3.822 1.135z" stroke="#98A9B7" stroke-width="2" fill="#FFF"/><g fill="#98A8B8"><path d="M125.033 55.114c4.11.947 7.081 2.442 8.911 4.487 1.37 1.53 2.128 3.443 2.276 5.741a2.023 2.023 0 0 1-3.878.928l-1.155-2.693a11.5 11.5 0 0 0-5.12-5.594l-1.758-.945a1.037 1.037 0 0 1 .724-1.924z" opacity=".2"/><path d="M120.659 103.374c3.89-1.601 6.552-4.067 6.188-8.04-.363-3.974-2.017-28.166-2.2-30.334-.121-1.446 1.317-1.494 4.315-.146l1.636 29.265c.218 3.767.092 5.886-.377 6.356-.703.705-4.31 3.74-7.788 3.6-3.478-.14-5.664.9-1.774-.7z" fill-opacity=".2"/></g><path d="M96.936 65.95c-5.63 2.258-8.313 1.174-16.377-3.482" stroke="#98A8B8" stroke-width="2"/><path d="M82.155 62.702a2.5 2.5 0 0 1-3.615 1.23l-3.43-2.06a2.5 2.5 0 1 1 2.576-4.286l2.127 1.278.219-.38a1.974 1.974 0 1 1 3.418 1.974l-1.294 2.243-.001.001z" fill="#98A8B8"/><path d="M135.319 65.072c6.179 6.204 11.545 3.44 16.15-.054" stroke="#98A8B8" stroke-width="2"/><path d="M151.174 65.7a2.5 2.5 0 0 0 3.81.252l2.779-2.877a2.5 2.5 0 0 0-3.597-3.473l-1.723 1.785-.31-.31a1.974 1.974 0 1 0-2.791 2.791l1.83 1.831.002.002z" fill="#98A8B8"/><g transform="translate(91 6)"><circle stroke="#98A8B8" stroke-width="2" fill="#FFF" cx="25" cy="25" r="25"/><path d="M30 50c11.046 0 20-11.193 20-25S41.046 0 30 0c11.683 8.885 13.93 15.83 13.93 25S40 40.735 30 50z" fill="#98A8B8" opacity=".2"/><path d="M0 23.151c.823-2.948 2.192-5.004 4.109-6.168.654-.398 5.885-7.385 6.453-7.646.572-.264 2.462 3.27 2.237 4.558 3.331-1.288 8.68-3.564 12.3-3.564 9.33 0 17.63 4.274 24.901 12.82V26c-7.894-8.522-16.228-12.796-25.004-12.82-3.497-.01-11.078 3.01-14.434 4.364.239-.932.02-2.149-.657-3.65-3.375 3.77-5.275 5.786-5.7 6.047C2.318 21.098.916 23.117 0 26v-2.849z" fill="#98A8B8"/><circle fill="#98A8B8" cx="19" cy="24" r="2"/><circle fill="#98A8B8" cx="32" cy="24" r="2"/><rect fill="#98A8B8" x="21" y="34" width="9" height="2" rx="1"/></g><path d="M27 131v3a3 3 0 0 0 3 3h108a3 3 0 0 0 3-3v-3H27z" stroke="#98A8B8" stroke-width="2" fill="#FFF"/><path d="M135 130h6v3.313a4 4 0 0 1-4.524 3.966c-1.96-.26-3.593-.39-4.899-.39 2.737 0 3.878-2.296 3.423-6.889z" fill="#98A8B8" opacity=".2"/><path d="M34 131h100V72a3 3 0 0 0-3-3H37a3 3 0 0 0-3 3v59z" stroke="#98A8B8" stroke-width="2" fill="#FFF"/><path d="M116 68h15a4 4 0 0 1 4 4v60h-19V68z" fill="#98A8B8" opacity=".2"/><path stroke="#98A9B7" stroke-width="2" fill="#FFF" d="M39 74h90v57H39z"/><g><g transform="translate(58 82)"><rect stroke="#1869B6" stroke-width="2" fill="#FFF" x="1" y="1" width="10" height="10" rx="5"/><path d="M7 9.536l3.086-1.205-.202-3.853a1.08 1.08 0 0 0-1.3-1A1.993 1.993 0 0 0 7 5.43v4.107z" stroke="#1869B6" stroke-width="2" fill="#1869B6" opacity=".2"/><rect fill="#1869B7" x="16" y="2" width="36" height="3" rx="1.5"/><rect fill="#D1E1F1" x="16" y="7" width="15" height="3" rx="1.5"/></g><g transform="translate(58 96)"><rect stroke="#1869B6" stroke-width="2" fill="#FFF" x="1" y="1" width="10" height="10" rx="5"/><path d="M7 9.536l3.086-1.205-.202-3.853a1.08 1.08 0 0 0-1.3-1A1.993 1.993 0 0 0 7 5.43v4.107z" stroke="#1869B6" stroke-width="2" fill="#1869B6" opacity=".2"/><rect fill="#1869B7" x="16" y="2" width="36" height="3" rx="1.5"/><rect fill="#D1E1F1" x="16" y="7" width="15" height="3" rx="1.5"/></g><g transform="translate(58 110)"><rect stroke="#1869B6" stroke-width="2" fill="#FFF" x="1" y="1" width="10" height="10" rx="5"/><path d="M7 9.536l3.086-1.205-.202-3.853a1.08 1.08 0 0 0-1.3-1A1.993 1.993 0 0 0 7 5.43v4.107z" stroke="#1869B6" stroke-width="2" fill="#1869B6" opacity=".2"/><rect fill="#1869B7" x="16" y="2" width="36" height="3" rx="1.5"/><rect fill="#D1E1F1" x="16" y="7" width="15" height="3" rx="1.5"/></g></g></g></svg>